# xmcd
#
# Track frame offsets: 
#        150
#        14795
#        28957
#        57220
#        73337
#        102092
#        129187
#        145725
#        174897
#        185450
#        201577
#        229827
#        251270
#        263337
#
# Disc length: 3776 seconds
#
# Revision: 7
# Processed by: cddbd v1.5.2PL0 Copyright (c) Steve Scherf et al.
# Submitted via: ExactAudioCopy v0.95b4
#
DISCID=c30ebe0e
DTITLE=Cesaria Evora - Cabo Verde
DYEAR=1900
DGENRE=Blues
TTITLE0=Tchintchirote
TTITLE1=Sabine Larga'm
TTITLE2=Partida
TTITLE3=Sangre de Beirona
TTITLE4=Apocalipse
TTITLE5=Mar e Morada De Sodage
TTITLE6=Bo e di meu Cretcheu
TTITLE7=Coragem irmon
TTITLE8=Quem bo e
TTITLE9=Regresso
TTITLE10=Zebra
TTITLE11=Mae Velha
TTITLE12=Pe di boi
TTITLE13=Ess pais
EXTD=ID3G:   0
EXTT0=
EXTT1=
EXTT2=
EXTT3=
EXTT4=
EXTT5=
EXTT6=
EXTT7=
EXTT8=
EXTT9=
EXTT10=
EXTT11=
EXTT12=
EXTT13=
PLAYORDER=
